<svg id="Capa_1" data-name="Capa 1" xmlns="http://www.w3.org/2000/svg" viewBox="0 0 661 105.6"><defs><style>.cls-1{isolation:isolate;}.cls-2{fill:#fff;}</style></defs><g class="cls-1"><path class="cls-2" d="M84.5,20.2H52v84.2H32.5V20.2H0V2.9H84.5Z"/><path class="cls-2" d="M132.7,46a34.39,34.39,0,0,0-15.6,3.4,20.55,20.55,0,0,0-9.9,9.6v45.3H88.1V30.2h17.6V45.5a36.12,36.12,0,0,1,10.1-12.2,24.29,24.29,0,0,1,13-4.9h2.4a6.15,6.15,0,0,1,1.4.1V46Z"/><path class="cls-2" d="M137.8,82.5a20.46,20.46,0,0,1,4.1-12.6,26.21,26.21,0,0,1,11.4-8.4,43.63,43.63,0,0,1,16.7-3,63.86,63.86,0,0,1,9.6.7,31,31,0,0,1,8.4,2.3v-4q0-7.05-4.2-10.8c-2.8-2.5-7-3.8-12.5-3.8A32.78,32.78,0,0,0,159.6,45a56.44,56.44,0,0,0-11.7,6.3l-6.1-12.6A62.25,62.25,0,0,1,157,31.4,55.13,55.13,0,0,1,173.4,29c10.7,0,19,2.6,24.9,7.9s8.9,12.8,8.9,22.5V83a6.41,6.41,0,0,0,1.1,4.2,5.48,5.48,0,0,0,3.5,1.6v15.6c-1.7.3-3.3.5-4.6.7a26,26,0,0,1-3.5.3c-3.8,0-6.7-.9-8.6-2.6a10.16,10.16,0,0,1-3.6-6.3l-.4-3.9a32.29,32.29,0,0,1-12.2,9.7,34.47,34.47,0,0,1-14.9,3.4,29.35,29.35,0,0,1-13.4-3,22.77,22.77,0,0,1-9.3-8.3A20.54,20.54,0,0,1,137.8,82.5Zm46.6,3.7a25,25,0,0,0,2.6-3.3,5.66,5.66,0,0,0,1-3.1V72.4a53.3,53.3,0,0,0-7.4-2.2,41.83,41.83,0,0,0-7.6-.8c-5,0-9,1-12.2,3.1s-4.8,4.9-4.8,8.3a9.4,9.4,0,0,0,1.6,5.3,10.67,10.67,0,0,0,4.6,4,15.8,15.8,0,0,0,7.1,1.5,22,22,0,0,0,8.4-1.6A17.33,17.33,0,0,0,184.4,86.2Z"/><path class="cls-2" d="M242.4,104.4,214.8,30.2h19.9l18.9,56.9,19-56.9h18.2l-27.4,74.2Z"/><path class="cls-2" d="M333.1,105.8a42.63,42.63,0,0,1-16.3-3,36,36,0,0,1-12.4-8.3,36.64,36.64,0,0,1-7.9-12.2,37.45,37.45,0,0,1-2.8-14.5,39.85,39.85,0,0,1,4.8-19.4,37.78,37.78,0,0,1,13.7-14.1A41.06,41.06,0,0,1,333.3,29c8.2,0,15.2,1.8,21,5.3a36,36,0,0,1,13.4,14,39.32,39.32,0,0,1,4.6,18.8c0,1.1,0,2.3-.1,3.5s-.2,2.1-.3,2.9H314a21.26,21.26,0,0,0,3.4,9.8,18.93,18.93,0,0,0,7.1,6.4,21.31,21.31,0,0,0,9.4,2.2,21.76,21.76,0,0,0,10.8-2.8,14.48,14.48,0,0,0,6.9-7.4L368,86.3a30.22,30.22,0,0,1-7.8,10.1,36.1,36.1,0,0,1-11.9,6.9A46.14,46.14,0,0,1,333.1,105.8ZM313.5,61.3h39.2a22.72,22.72,0,0,0-3.2-9.7,19.22,19.22,0,0,0-6.9-6.4,20.61,20.61,0,0,0-9.6-2.3,19.81,19.81,0,0,0-9.4,2.3,19.22,19.22,0,0,0-6.9,6.4A21.86,21.86,0,0,0,313.5,61.3Z"/><path class="cls-2" d="M383.8,0H403V80.6c0,3.4.6,5.8,1.7,7a6.1,6.1,0,0,0,4.7,1.8,19.54,19.54,0,0,0,4.7-.6,36.24,36.24,0,0,0,4.3-1.4L421,102a41.36,41.36,0,0,1-9,2.9,46.14,46.14,0,0,1-9.3,1c-6,0-10.6-1.6-13.9-4.8s-4.9-7.8-4.9-13.7V0Z"/><path class="cls-2" d="M429.1,0h19.2V80.6c0,3.4.6,5.8,1.7,7a6.1,6.1,0,0,0,4.7,1.8,19.54,19.54,0,0,0,4.7-.6,36.24,36.24,0,0,0,4.3-1.4l2.6,14.6a41.36,41.36,0,0,1-9,2.9,46.14,46.14,0,0,1-9.3,1c-6,0-10.6-1.6-13.9-4.8s-4.9-7.8-4.9-13.7V0Z"/><path class="cls-2" d="M474.6,19V0h19.2V19Zm0,85.4v-75h19.2v74.9H474.6Z"/><path class="cls-2" d="M531.2,104.4,503.6,30.2h19.9l18.9,56.9,19-56.9h18.2l-27.4,74.2Z"/><path class="cls-2" d="M621.8,105.8a42.63,42.63,0,0,1-16.3-3,36,36,0,0,1-12.4-8.3,36.64,36.64,0,0,1-7.9-12.2,37.45,37.45,0,0,1-2.8-14.5,39.85,39.85,0,0,1,4.8-19.4,37.78,37.78,0,0,1,13.7-14.1A41.06,41.06,0,0,1,622,29c8.2,0,15.2,1.8,21,5.3a36,36,0,0,1,13.4,14A39.32,39.32,0,0,1,661,67.1c0,1.1,0,2.3-.1,3.5s-.2,2.1-.3,2.9H602.7a21.26,21.26,0,0,0,3.4,9.8,18.93,18.93,0,0,0,7.1,6.4,21.31,21.31,0,0,0,9.4,2.2,21.76,21.76,0,0,0,10.8-2.8,14.48,14.48,0,0,0,6.9-7.4l16.4,4.6a30.22,30.22,0,0,1-7.8,10.1,36.1,36.1,0,0,1-11.9,6.9A45.7,45.7,0,0,1,621.8,105.8ZM602.2,61.3h39.2a22.72,22.72,0,0,0-3.2-9.7,19.22,19.22,0,0,0-6.9-6.4,20.61,20.61,0,0,0-9.6-2.3,19.81,19.81,0,0,0-9.4,2.3,19.22,19.22,0,0,0-6.9,6.4A23.19,23.19,0,0,0,602.2,61.3Z"/></g></svg>