<?xml version="1.0" encoding="utf-8"?>
<!-- Generator: Adobe Illustrator 26.0.0, SVG Export Plug-In . SVG Version: 6.00 Build 0)  -->
<svg version="1.1" id="Capa_1" xmlns="http://www.w3.org/2000/svg" xmlns:xlink="http://www.w3.org/1999/xlink" x="0px" y="0px"
	 viewBox="0 0 661 105.6" style="enable-background:new 0 0 661 105.6;" xml:space="preserve">
<style type="text/css">
	.st0{enable-background:new    ;}
</style>
<g class="st0">
	<path d="M84.5,20.2H52v84.2H32.5V20.2H0V2.9h84.5V20.2z"/>
	<path d="M132.7,46c-5.8,0-11,1.1-15.6,3.4c-4.6,2.2-7.9,5.5-9.9,9.6v45.3H88.1V30.2h17.6v15.3c2.7-5.1,6.1-9.2,10.1-12.2
		c4.1-3,8.4-4.6,13-4.9c1,0,1.9,0,2.4,0s1,0,1.4,0.1V46z"/>
	<path d="M137.8,82.5c0-4.8,1.4-9,4.1-12.6c2.7-3.6,6.5-6.4,11.4-8.4c4.9-2,10.4-3,16.7-3c3.1,0,6.3,0.2,9.6,0.7
		c3.2,0.5,6.1,1.2,8.4,2.3v-4c0-4.7-1.4-8.3-4.2-10.8c-2.8-2.5-7-3.8-12.5-3.8c-4.1,0-8,0.7-11.7,2.1c-3.7,1.4-7.6,3.5-11.7,6.3
		l-6.1-12.6c5-3.2,10-5.7,15.2-7.3c5.2-1.6,10.6-2.4,16.4-2.4c10.7,0,19,2.6,24.9,7.9c6,5.3,8.9,12.8,8.9,22.5V83
		c0,2,0.4,3.4,1.1,4.2c0.7,0.8,1.9,1.4,3.5,1.6v15.6c-1.7,0.3-3.3,0.5-4.6,0.7c-1.4,0.2-2.6,0.3-3.5,0.3c-3.8,0-6.7-0.9-8.6-2.6
		c-2-1.7-3.2-3.8-3.6-6.3l-0.4-3.9c-3.2,4.2-7.3,7.4-12.2,9.7c-4.9,2.3-9.8,3.4-14.9,3.4c-5,0-9.4-1-13.4-3c-4-2-7.1-4.8-9.3-8.3
		C138.9,90.9,137.8,86.9,137.8,82.5z M184.4,86.2c1-1.1,1.9-2.2,2.6-3.3c0.7-1.1,1-2.1,1-3.1v-7.4c-2.3-0.9-4.8-1.6-7.4-2.2
		c-2.7-0.5-5.2-0.8-7.6-0.8c-5,0-9,1-12.2,3.1c-3.2,2.1-4.8,4.9-4.8,8.3c0,1.9,0.5,3.6,1.6,5.3c1,1.7,2.6,3,4.6,4
		c2,1,4.4,1.5,7.1,1.5c2.9,0,5.7-0.5,8.4-1.6C180.5,89.1,182.7,87.8,184.4,86.2z"/>
	<path d="M242.4,104.4l-27.6-74.2h19.9l18.9,56.9l19-56.9h18.2l-27.4,74.2H242.4z"/>
	<path d="M333.1,105.8c-6,0-11.4-1-16.3-3c-4.9-2-9-4.8-12.4-8.3c-3.4-3.5-6.1-7.6-7.9-12.2c-1.9-4.6-2.8-9.4-2.8-14.5
		c0-7.1,1.6-13.5,4.8-19.4c3.2-5.8,7.8-10.5,13.7-14.1c6-3.5,13-5.3,21.1-5.3c8.2,0,15.2,1.8,21,5.3c5.8,3.5,10.3,8.2,13.4,14
		c3.1,5.8,4.6,12.1,4.6,18.8c0,1.1,0,2.3-0.1,3.5c-0.1,1.2-0.2,2.1-0.3,2.9h-57.9c0.4,3.7,1.5,7,3.4,9.8c1.9,2.8,4.2,4.9,7.1,6.4
		c2.9,1.4,6,2.2,9.4,2.2c3.8,0,7.4-0.9,10.8-2.8c3.4-1.9,5.7-4.3,6.9-7.4l16.4,4.6c-1.8,3.8-4.4,7.2-7.8,10.1
		c-3.4,3-7.4,5.3-11.9,6.9C343.7,104.9,338.6,105.8,333.1,105.8z M313.5,61.3h39.2c-0.4-3.7-1.5-7-3.2-9.7c-1.8-2.7-4.1-4.9-6.9-6.4
		c-2.9-1.5-6.1-2.3-9.6-2.3c-3.4,0-6.6,0.8-9.4,2.3s-5.1,3.7-6.9,6.4C314.9,54.4,313.9,57.6,313.5,61.3z"/>
	<path d="M383.8,0H403v80.6c0,3.4,0.6,5.8,1.7,7c1.1,1.2,2.7,1.8,4.7,1.8c1.5,0,3.1-0.2,4.7-0.6c1.6-0.4,3-0.9,4.3-1.4l2.6,14.6
		c-2.6,1.2-5.6,2.2-9,2.9c-3.4,0.7-6.5,1-9.3,1c-6,0-10.6-1.6-13.9-4.8c-3.3-3.2-4.9-7.8-4.9-13.7V0z"/>
	<path d="M429.1,0h19.2v80.6c0,3.4,0.6,5.8,1.7,7c1.1,1.2,2.7,1.8,4.7,1.8c1.5,0,3.1-0.2,4.7-0.6c1.6-0.4,3-0.9,4.3-1.4l2.6,14.6
		c-2.6,1.2-5.6,2.2-9,2.9c-3.4,0.7-6.5,1-9.3,1c-6,0-10.6-1.6-13.9-4.8c-3.3-3.2-4.9-7.8-4.9-13.7V0z"/>
	<path d="M474.6,19V0h19.2v19H474.6z M474.6,104.4V29.4h19.2v74.9H474.6z"/>
	<path d="M531.2,104.4l-27.6-74.2h19.9l18.9,56.9l19-56.9h18.2l-27.4,74.2H531.2z"/>
	<path d="M621.8,105.8c-6,0-11.4-1-16.3-3c-4.9-2-9-4.8-12.4-8.3c-3.4-3.5-6.1-7.6-7.9-12.2c-1.9-4.6-2.8-9.4-2.8-14.5
		c0-7.1,1.6-13.5,4.8-19.4c3.2-5.8,7.8-10.5,13.7-14.1c6-3.5,13-5.3,21.1-5.3c8.2,0,15.2,1.8,21,5.3c5.8,3.5,10.3,8.2,13.4,14
		c3.1,5.8,4.6,12.1,4.6,18.8c0,1.1,0,2.3-0.1,3.5c-0.1,1.2-0.2,2.1-0.3,2.9h-57.9c0.4,3.7,1.5,7,3.4,9.8c1.9,2.8,4.2,4.9,7.1,6.4
		c2.9,1.4,6,2.2,9.4,2.2c3.8,0,7.4-0.9,10.8-2.8c3.4-1.9,5.7-4.3,6.9-7.4l16.4,4.6c-1.8,3.8-4.4,7.2-7.8,10.1
		c-3.4,3-7.4,5.3-11.9,6.9C632.4,104.9,627.4,105.8,621.8,105.8z M602.2,61.3h39.2c-0.4-3.7-1.5-7-3.2-9.7c-1.8-2.7-4.1-4.9-6.9-6.4
		c-2.9-1.5-6.1-2.3-9.6-2.3c-3.4,0-6.6,0.8-9.4,2.3c-2.8,1.5-5.1,3.7-6.9,6.4C603.7,54.4,602.6,57.6,602.2,61.3z"/>
</g>
<g class="st0">
	<path d="M84.5-195.8H52v84.2H32.5v-84.2H0v-17.3h84.5V-195.8z"/>
	<path d="M132.7-170c-5.8,0-11,1.1-15.6,3.4c-4.6,2.2-7.9,5.5-9.9,9.6v45.3H88.1v-74.2h17.6v15.3c2.7-5.1,6.1-9.2,10.1-12.2
		c4.1-3,8.4-4.6,13-4.9c1,0,1.9,0,2.4,0s1,0,1.4,0.1V-170z"/>
	<path d="M137.8-133.5c0-4.8,1.4-9,4.1-12.6c2.7-3.6,6.5-6.4,11.4-8.4c4.9-2,10.4-3,16.7-3c3.1,0,6.3,0.2,9.6,0.7
		c3.2,0.5,6.1,1.2,8.4,2.3v-4c0-4.7-1.4-8.3-4.2-10.8c-2.8-2.5-7-3.8-12.5-3.8c-4.1,0-8,0.7-11.7,2.1c-3.7,1.4-7.6,3.5-11.7,6.3
		l-6.1-12.6c5-3.2,10-5.7,15.2-7.3c5.2-1.6,10.6-2.4,16.4-2.4c10.7,0,19,2.6,24.9,7.9c6,5.3,8.9,12.8,8.9,22.5v23.5
		c0,2,0.4,3.4,1.1,4.2c0.7,0.8,1.9,1.4,3.5,1.6v15.6c-1.7,0.3-3.3,0.5-4.6,0.7c-1.4,0.2-2.6,0.3-3.5,0.3c-3.8,0-6.7-0.9-8.6-2.6
		c-2-1.7-3.2-3.8-3.6-6.3l-0.4-3.9c-3.2,4.2-7.3,7.4-12.2,9.7c-4.9,2.3-9.8,3.4-14.9,3.4c-5,0-9.4-1-13.4-3c-4-2-7.1-4.8-9.3-8.3
		C138.9-125.1,137.8-129.1,137.8-133.5z M184.4-129.8c1-1.1,1.9-2.2,2.6-3.3c0.7-1.1,1-2.1,1-3.1v-7.4c-2.3-0.9-4.8-1.6-7.4-2.2
		c-2.7-0.5-5.2-0.8-7.6-0.8c-5,0-9,1-12.2,3.1c-3.2,2.1-4.8,4.9-4.8,8.3c0,1.9,0.5,3.6,1.6,5.3c1,1.7,2.6,3,4.6,4
		c2,1,4.4,1.5,7.1,1.5c2.9,0,5.7-0.5,8.4-1.6C180.5-126.9,182.7-128.2,184.4-129.8z"/>
	<path d="M242.4-111.6l-27.6-74.2h19.9l18.9,56.9l19-56.9h18.2l-27.4,74.2H242.4z"/>
	<path d="M333.1-110.2c-6,0-11.4-1-16.3-3c-4.9-2-9-4.8-12.4-8.3c-3.4-3.5-6.1-7.6-7.9-12.2c-1.9-4.6-2.8-9.4-2.8-14.5
		c0-7.1,1.6-13.5,4.8-19.4c3.2-5.8,7.8-10.5,13.7-14.1c6-3.5,13-5.3,21.1-5.3c8.2,0,15.2,1.8,21,5.3c5.8,3.5,10.3,8.2,13.4,14
		c3.1,5.8,4.6,12.1,4.6,18.8c0,1.1,0,2.3-0.1,3.5c-0.1,1.2-0.2,2.1-0.3,2.9h-57.9c0.4,3.7,1.5,7,3.4,9.8c1.9,2.8,4.2,4.9,7.1,6.4
		c2.9,1.4,6,2.2,9.4,2.2c3.8,0,7.4-0.9,10.8-2.8c3.4-1.9,5.7-4.3,6.9-7.4l16.4,4.6c-1.8,3.8-4.4,7.2-7.8,10.1
		c-3.4,3-7.4,5.3-11.9,6.9C343.7-111.1,338.6-110.2,333.1-110.2z M313.5-154.7h39.2c-0.4-3.7-1.5-7-3.2-9.7
		c-1.8-2.7-4.1-4.9-6.9-6.4c-2.9-1.5-6.1-2.3-9.6-2.3c-3.4,0-6.6,0.8-9.4,2.3c-2.8,1.5-5.1,3.7-6.9,6.4
		C314.9-161.6,313.9-158.4,313.5-154.7z"/>
	<path d="M383.8-216H403v80.6c0,3.4,0.6,5.8,1.7,7c1.1,1.2,2.7,1.8,4.7,1.8c1.5,0,3.1-0.2,4.7-0.6c1.6-0.4,3-0.9,4.3-1.4l2.6,14.6
		c-2.6,1.2-5.6,2.2-9,2.9c-3.4,0.7-6.5,1-9.3,1c-6,0-10.6-1.6-13.9-4.8c-3.3-3.2-4.9-7.8-4.9-13.7V-216z"/>
	<path d="M429.1-216h19.2v80.6c0,3.4,0.6,5.8,1.7,7c1.1,1.2,2.7,1.8,4.7,1.8c1.5,0,3.1-0.2,4.7-0.6c1.6-0.4,3-0.9,4.3-1.4l2.6,14.6
		c-2.6,1.2-5.6,2.2-9,2.9c-3.4,0.7-6.5,1-9.3,1c-6,0-10.6-1.6-13.9-4.8c-3.3-3.2-4.9-7.8-4.9-13.7V-216z"/>
	<path d="M474.6-197v-19h19.2v19H474.6z M474.6-111.6v-74.9h19.2v74.9H474.6z"/>
	<path d="M531.2-111.6l-27.6-74.2h19.9l18.9,56.9l19-56.9h18.2l-27.4,74.2H531.2z"/>
	<path d="M621.8-110.2c-6,0-11.4-1-16.3-3c-4.9-2-9-4.8-12.4-8.3c-3.4-3.5-6.1-7.6-7.9-12.2c-1.9-4.6-2.8-9.4-2.8-14.5
		c0-7.1,1.6-13.5,4.8-19.4c3.2-5.8,7.8-10.5,13.7-14.1c6-3.5,13-5.3,21.1-5.3c8.2,0,15.2,1.8,21,5.3c5.8,3.5,10.3,8.2,13.4,14
		c3.1,5.8,4.6,12.1,4.6,18.8c0,1.1,0,2.3-0.1,3.5c-0.1,1.2-0.2,2.1-0.3,2.9h-57.9c0.4,3.7,1.5,7,3.4,9.8c1.9,2.8,4.2,4.9,7.1,6.4
		c2.9,1.4,6,2.2,9.4,2.2c3.8,0,7.4-0.9,10.8-2.8c3.4-1.9,5.7-4.3,6.9-7.4l16.4,4.6c-1.8,3.8-4.4,7.2-7.8,10.1
		c-3.4,3-7.4,5.3-11.9,6.9C632.4-111.1,627.4-110.2,621.8-110.2z M602.2-154.7h39.2c-0.4-3.7-1.5-7-3.2-9.7
		c-1.8-2.7-4.1-4.9-6.9-6.4c-2.9-1.5-6.1-2.3-9.6-2.3c-3.4,0-6.6,0.8-9.4,2.3c-2.8,1.5-5.1,3.7-6.9,6.4
		C603.7-161.6,602.6-158.4,602.2-154.7z"/>
</g>
<g>
	<path d="M172.6-56.4c-1.6,0-3-0.3-4.2-0.8c-1.2-0.5-2.3-1.3-3.2-2.2c-0.9-0.9-1.6-2-2.1-3.2c-0.5-1.2-0.7-2.5-0.7-3.9
		c0-1.4,0.2-2.7,0.7-3.9c0.5-1.2,1.2-2.3,2.1-3.2c0.9-0.9,2-1.7,3.2-2.2c1.2-0.5,2.6-0.8,4.2-0.8s2.9,0.3,4.2,0.8
		c1.2,0.5,2.3,1.3,3.2,2.2c0.9,0.9,1.6,2,2.1,3.2c0.5,1.2,0.7,2.5,0.7,3.9c0,1.4-0.2,2.7-0.7,3.9c-0.5,1.2-1.2,2.3-2.1,3.2
		c-0.9,0.9-2,1.7-3.2,2.2C175.6-56.6,174.2-56.4,172.6-56.4z M166.7-66.5c0,1.2,0.3,2.4,0.8,3.4c0.5,1,1.2,1.8,2.1,2.3
		c0.9,0.6,1.9,0.9,3,0.9c1.1,0,2.1-0.3,3-0.9c0.9-0.6,1.6-1.4,2.1-2.4c0.5-1,0.8-2.1,0.8-3.3c0-1.2-0.3-2.4-0.8-3.3
		c-0.5-1-1.2-1.8-2.1-2.4c-0.9-0.6-1.9-0.9-3-0.9c-1.1,0-2.1,0.3-3,0.9c-0.9,0.6-1.6,1.4-2.1,2.4C167-68.8,166.7-67.7,166.7-66.5z"
		/>
	<path d="M197.7-56.4c-1.6,0-3-0.4-4.2-1.1c-1.2-0.7-2.2-1.7-2.9-2.9v11.7h-4.2v-27.6h3.7v3.6c0.8-1.2,1.7-2.1,2.9-2.8
		c1.2-0.7,2.6-1,4-1c1.4,0,2.6,0.3,3.7,0.8c1.1,0.5,2.1,1.3,2.9,2.2c0.8,0.9,1.5,2,1.9,3.2s0.7,2.5,0.7,3.8c0,1.9-0.4,3.6-1.1,5.1
		c-0.7,1.5-1.8,2.8-3.1,3.7C200.9-56.8,199.4-56.4,197.7-56.4z M196.4-59.9c0.9,0,1.7-0.2,2.4-0.6s1.3-0.9,1.9-1.5
		c0.5-0.6,0.9-1.3,1.2-2.1c0.3-0.8,0.4-1.6,0.4-2.5c0-0.9-0.2-1.7-0.5-2.5c-0.3-0.8-0.7-1.5-1.3-2.1c-0.6-0.6-1.2-1.1-2-1.4
		c-0.7-0.3-1.6-0.5-2.4-0.5c-0.5,0-1.1,0.1-1.7,0.3c-0.6,0.2-1.1,0.5-1.6,0.8c-0.5,0.3-0.9,0.8-1.3,1.2c-0.4,0.5-0.6,1-0.8,1.5v5.1
		c0.4,0.8,0.8,1.5,1.4,2.1s1.2,1.1,2,1.5C194.8-60.1,195.6-59.9,196.4-59.9z"/>
	<path d="M219.2-56.4c-1.5,0-2.9-0.3-4.2-0.8c-1.2-0.5-2.3-1.3-3.2-2.2c-0.9-0.9-1.6-2-2.1-3.2c-0.5-1.2-0.7-2.5-0.7-3.9
		c0-1.8,0.4-3.5,1.3-5.1c0.9-1.5,2.1-2.8,3.6-3.7c1.5-0.9,3.3-1.4,5.4-1.4s3.8,0.5,5.3,1.4c1.5,0.9,2.7,2.2,3.5,3.7s1.2,3.2,1.2,4.9
		c0,0.3,0,0.6,0,0.8s-0.1,0.5-0.1,0.7h-15.8c0.1,1.1,0.4,2.1,1,3c0.6,0.9,1.3,1.5,2.2,2c0.9,0.5,1.8,0.7,2.8,0.7
		c1.1,0,2.2-0.3,3.2-0.8c1-0.6,1.7-1.3,2-2.2l3.6,1c-0.4,1-1.1,1.8-1.9,2.6s-1.9,1.4-3.1,1.8C221.8-56.6,220.5-56.4,219.2-56.4z
		 M213.2-67.9h11.9c-0.1-1.1-0.4-2.1-1-2.9c-0.6-0.9-1.3-1.5-2.2-2c-0.9-0.5-1.8-0.7-2.9-0.7c-1,0-2,0.2-2.9,0.7s-1.6,1.1-2.1,2
		C213.6-70,213.3-69,213.2-67.9z"/>
	<path d="M250.4-56.7h-4.2v-10.9c0-1.8-0.3-3.1-0.9-4c-0.6-0.8-1.5-1.3-2.6-1.3c-0.8,0-1.6,0.2-2.4,0.6c-0.8,0.4-1.5,0.9-2.1,1.6
		c-0.6,0.7-1.1,1.5-1.4,2.4v11.6h-4.2v-19.6h3.8v4c0.5-0.9,1.2-1.6,2-2.3c0.8-0.6,1.7-1.1,2.8-1.5c1-0.3,2.1-0.5,3.3-0.5
		c1.2,0,2.2,0.2,2.9,0.6c0.8,0.4,1.4,1,1.8,1.7c0.4,0.7,0.7,1.6,0.9,2.5c0.2,1,0.2,2,0.2,3V-56.7z"/>
	<path d="M282.3-56.7h-4.2v-10.9c0-1.8-0.3-3.1-0.9-4c-0.6-0.8-1.5-1.3-2.6-1.3c-0.8,0-1.6,0.2-2.4,0.6c-0.8,0.4-1.5,0.9-2.1,1.6
		c-0.6,0.7-1.1,1.5-1.4,2.4v11.6h-4.2v-19.6h3.8v4c0.5-0.9,1.2-1.6,2-2.3c0.8-0.6,1.7-1.1,2.8-1.5c1-0.3,2.1-0.5,3.3-0.5
		c1.2,0,2.2,0.2,2.9,0.6c0.8,0.4,1.4,1,1.8,1.7c0.4,0.7,0.7,1.6,0.9,2.5c0.2,1,0.2,2,0.2,3V-56.7z"/>
	<path d="M296.1-56.4c-1.5,0-2.9-0.3-4.2-0.8c-1.2-0.5-2.3-1.3-3.2-2.2c-0.9-0.9-1.6-2-2.1-3.2c-0.5-1.2-0.7-2.5-0.7-3.9
		c0-1.8,0.4-3.5,1.3-5.1s2.1-2.8,3.6-3.7c1.5-0.9,3.3-1.4,5.4-1.4c2.1,0,3.8,0.5,5.3,1.4c1.5,0.9,2.7,2.2,3.5,3.7s1.2,3.2,1.2,4.9
		c0,0.3,0,0.6,0,0.8s-0.1,0.5-0.1,0.7h-15.8c0.1,1.1,0.4,2.1,1,3c0.6,0.9,1.3,1.5,2.2,2c0.9,0.5,1.8,0.7,2.8,0.7
		c1.1,0,2.2-0.3,3.2-0.8c1-0.6,1.7-1.3,2-2.2l3.6,1c-0.4,1-1.1,1.8-1.9,2.6s-1.9,1.4-3.1,1.8C298.7-56.6,297.4-56.4,296.1-56.4z
		 M290.1-67.9h11.9c-0.1-1.1-0.4-2.1-1-2.9c-0.6-0.9-1.3-1.5-2.2-2s-1.8-0.7-2.9-0.7c-1,0-2,0.2-2.9,0.7s-1.6,1.1-2.1,2
		C290.5-70,290.2-69,290.1-67.9z"/>
	<path d="M333.6-76.3h4l-8.3,19.6h-3.6l-3.6-8.8l-3.6,8.8h-3.5l-8.3-19.6h4l6.3,15.6l2.8-7.2l-3.4-8.3h3.5l2.2,6.1l2.2-6.1h3.5
		l-3.4,8.3l2.8,7.2L333.6-76.3z"/>
	<path d="M366.3-56.7h-4.2v-10.9c0-1.8-0.3-3.1-1-4c-0.7-0.9-1.6-1.3-2.8-1.3c-0.7,0-1.5,0.2-2.3,0.6c-0.8,0.4-1.5,0.9-2.1,1.6
		c-0.6,0.7-1,1.5-1.3,2.4v11.6h-4.2v-27.6h4.2v11.9c0.8-1.3,1.8-2.4,3.1-3.1c1.3-0.8,2.7-1.1,4.2-1.1c1.2,0,2.3,0.2,3.1,0.6
		c0.8,0.4,1.4,1,1.9,1.7c0.5,0.7,0.8,1.6,1,2.5c0.2,1,0.3,2,0.3,3V-56.7z"/>
	<path d="M380-56.4c-1.6,0-3-0.3-4.2-0.8c-1.2-0.5-2.3-1.3-3.2-2.2c-0.9-0.9-1.6-2-2.1-3.2c-0.5-1.2-0.7-2.5-0.7-3.9
		c0-1.4,0.2-2.7,0.7-3.9c0.5-1.2,1.2-2.3,2.1-3.2c0.9-0.9,2-1.7,3.2-2.2c1.2-0.5,2.6-0.8,4.2-0.8c1.5,0,2.9,0.3,4.2,0.8
		c1.2,0.5,2.3,1.3,3.2,2.2c0.9,0.9,1.6,2,2.1,3.2c0.5,1.2,0.7,2.5,0.7,3.9c0,1.4-0.2,2.7-0.7,3.9c-0.5,1.2-1.2,2.3-2.1,3.2
		c-0.9,0.9-2,1.7-3.2,2.2C383-56.6,381.6-56.4,380-56.4z M374.2-66.5c0,1.2,0.3,2.4,0.8,3.4c0.5,1,1.2,1.8,2.1,2.3
		c0.9,0.6,1.9,0.9,3,0.9c1.1,0,2.1-0.3,3-0.9c0.9-0.6,1.6-1.4,2.1-2.4c0.5-1,0.8-2.1,0.8-3.3c0-1.2-0.3-2.4-0.8-3.3
		c-0.5-1-1.2-1.8-2.1-2.4c-0.9-0.6-1.9-0.9-3-0.9c-1.1,0-2.1,0.3-3,0.9c-0.9,0.6-1.6,1.4-2.1,2.4C374.4-68.8,374.2-67.7,374.2-66.5z
		"/>
	<path d="M405-72.9c-1.6,0-3,0.4-4.3,1.1c-1.2,0.7-2.1,1.7-2.7,3v12.1h-4.2v-19.6h3.9v4.3c0.7-1.4,1.6-2.4,2.7-3.3
		c1.1-0.8,2.3-1.3,3.5-1.3c0.3,0,0.5,0,0.6,0s0.3,0,0.4,0V-72.9z"/>
	<path d="M408-79.7v-4.6h4.2v4.6H408z M408-56.7v-19.8h4.2v19.8H408z"/>
	<path d="M415.7-59.3l11.7-14h-11.3v-2.9H432v2.6l-11.6,14h11.7v2.9h-16.4V-59.3z"/>
	<path d="M444.3-56.4c-1.6,0-3-0.3-4.2-0.8c-1.2-0.5-2.3-1.3-3.2-2.2c-0.9-0.9-1.6-2-2.1-3.2c-0.5-1.2-0.7-2.5-0.7-3.9
		c0-1.4,0.2-2.7,0.7-3.9c0.5-1.2,1.2-2.3,2.1-3.2c0.9-0.9,2-1.7,3.2-2.2c1.2-0.5,2.6-0.8,4.2-0.8c1.5,0,2.9,0.3,4.2,0.8
		c1.2,0.5,2.3,1.3,3.2,2.2c0.9,0.9,1.6,2,2.1,3.2c0.5,1.2,0.7,2.5,0.7,3.9c0,1.4-0.2,2.7-0.7,3.9c-0.5,1.2-1.2,2.3-2.1,3.2
		c-0.9,0.9-2,1.7-3.2,2.2C447.3-56.6,445.9-56.4,444.3-56.4z M438.4-66.5c0,1.2,0.3,2.4,0.8,3.4c0.5,1,1.2,1.8,2.1,2.3
		c0.9,0.6,1.9,0.9,3,0.9c1.1,0,2.1-0.3,3-0.9c0.9-0.6,1.6-1.4,2.1-2.4c0.5-1,0.8-2.1,0.8-3.3c0-1.2-0.3-2.4-0.8-3.3
		c-0.5-1-1.2-1.8-2.1-2.4c-0.9-0.6-1.9-0.9-3-0.9c-1.1,0-2.1,0.3-3,0.9c-0.9,0.6-1.6,1.4-2.1,2.4C438.7-68.8,438.4-67.7,438.4-66.5z
		"/>
	<path d="M475.9-56.7h-4.2v-10.9c0-1.8-0.3-3.1-0.9-4c-0.6-0.8-1.5-1.3-2.6-1.3c-0.8,0-1.6,0.2-2.4,0.6c-0.8,0.4-1.5,0.9-2.1,1.6
		c-0.6,0.7-1.1,1.5-1.4,2.4v11.6h-4.2v-19.6h3.8v4c0.5-0.9,1.2-1.6,2-2.3c0.8-0.6,1.7-1.1,2.8-1.5c1-0.3,2.1-0.5,3.3-0.5
		c1.2,0,2.2,0.2,2.9,0.6c0.8,0.4,1.4,1,1.8,1.7c0.4,0.7,0.7,1.6,0.9,2.5c0.2,1,0.2,2,0.2,3V-56.7z"/>
	<path d="M487.8-56.4c-1.7,0-3.2-0.3-4.7-0.8c-1.5-0.5-2.8-1.4-3.8-2.4l1.5-2.8c1.1,1,2.3,1.7,3.4,2.2c1.1,0.5,2.3,0.7,3.4,0.7
		c1.2,0,2.1-0.2,2.8-0.6c0.7-0.4,1.1-1.1,1.1-1.9c0-0.6-0.2-1.1-0.6-1.4c-0.4-0.3-0.9-0.6-1.6-0.8c-0.7-0.2-1.6-0.5-2.6-0.7
		c-1.4-0.4-2.6-0.9-3.6-1.3s-1.7-1-2.2-1.7c-0.5-0.7-0.7-1.5-0.7-2.6c0-1.3,0.3-2.4,1-3.3c0.7-0.9,1.6-1.6,2.7-2.1
		c1.2-0.5,2.5-0.7,4.1-0.7c1.4,0,2.8,0.2,4,0.7s2.3,1.1,3.2,2.1l-1.8,2.8c-0.9-0.8-1.8-1.4-2.7-1.8c-0.9-0.4-1.9-0.6-3-0.6
		c-0.6,0-1.2,0.1-1.7,0.2c-0.6,0.1-1,0.4-1.4,0.7c-0.4,0.4-0.5,0.9-0.5,1.5c0,0.5,0.2,0.9,0.5,1.3s0.8,0.6,1.4,0.8
		c0.6,0.2,1.3,0.5,2.2,0.7c1.5,0.4,2.8,0.9,3.9,1.3c1.1,0.4,1.9,1,2.5,1.7c0.6,0.7,0.9,1.6,0.9,2.8c0,1.9-0.7,3.4-2.1,4.4
		C492-56.9,490.1-56.4,487.8-56.4z"/>
</g>
</svg>
